<?xml version="1.0" standalone="no"?>
<!DOCTYPE svg PUBLIC "-//W3C//DTD SVG 20010904//EN"
 "http://www.w3.org/TR/2001/REC-SVG-20010904/DTD/svg10.dtd">
<svg version="1.0" xmlns="http://www.w3.org/2000/svg"
 width="250.000000pt" height="250.000000pt" viewBox="0 0 250.000000 250.000000"
 preserveAspectRatio="xMidYMid meet">

<g transform="translate(0.000000,250.000000) scale(0.100000,-0.100000)"
fill="#000000" stroke="none">
<path d="M1335 2419 c-30 -17 -695 -688 -716 -723 -22 -37 -25 -97 -5 -134 8
-15 41 -53 74 -85 l59 -58 -5 54 c-3 36 1 63 11 83 9 16 143 156 299 312 l284
282 53 0 c28 0 64 -6 79 -14 15 -8 152 -143 304 -299 295 -303 299 -309 283
-389 -6 -32 -5 -32 58 32 75 76 93 121 76 185 -9 34 -68 97 -369 399 l-358
359 -53 4 c-30 2 -63 -2 -74 -8z"/>
<path d="M2277 1459 c-17 -10 -47 -59 -47 -79 0 -20 27 -10 38 15 14 31 37 41
57 25 13 -11 12 -16 -4 -39 -27 -38 -34 -67 -21 -91 21 -40 100 -10 100 39 0
11 6 18 16 17 34 -2 23 22 -30 72 -55 52 -76 60 -109 41z m101 -91 c15 -19 -4
-58 -27 -58 -29 0 -35 17 -17 45 18 28 29 31 44 13z"/>
<path d="M198 1303 c-88 -91 -107 -147 -72 -216 9 -18 172 -188 362 -380 376
-376 380 -379 460 -357 32 8 99 71 389 363 370 373 382 389 369 463 -7 33
-117 174 -137 174 -5 0 -6 -20 -3 -44 4 -30 1 -54 -10 -77 -9 -19 -143 -161
-299 -316 -300 -299 -310 -307 -384 -288 -32 7 -584 551 -610 599 -11 21 -14
45 -10 83 3 29 5 53 3 53 -1 0 -27 -26 -58 -57z"/>
<path d="M2167 1353 c-4 -3 -7 -20 -7 -36 0 -24 -3 -27 -14 -18 -10 8 -16 8
-24 -2 -9 -10 3 -28 53 -77 56 -55 66 -62 80 -50 14 12 11 18 -29 59 -50 51
-54 65 -30 92 23 25 -5 56 -29 32z"/>
<path d="M2060 1241 c-5 -11 -10 -27 -10 -36 0 -11 -5 -15 -14 -12 -8 3 -19 0
-25 -7 -8 -9 6 -29 54 -76 55 -54 66 -62 80 -50 13 11 10 18 -30 61 -25 26
-45 52 -45 56 0 5 7 19 16 31 16 23 13 52 -5 52 -6 0 -15 -9 -21 -19z"/>
<path d="M1932 1110 c-12 -5 -29 -25 -39 -44 -14 -30 -14 -39 -3 -66 15 -37
63 -70 102 -70 31 0 88 52 88 81 0 29 -23 23 -42 -11 -11 -20 -25 -30 -40 -30
-48 0 -50 14 -8 55 46 45 49 58 18 79 -25 18 -42 19 -76 6z m48 -30 c12 -8 10
-14 -14 -39 -16 -17 -33 -28 -38 -25 -13 8 -9 41 8 58 18 18 23 19 44 6z"/>
<path d="M1740 991 c0 -11 5 -23 11 -27 6 -3 8 -17 5 -29 -6 -25 8 -43 19 -24
5 7 25 -7 55 -36 55 -54 95 -59 117 -15 15 31 9 37 -22 20 -24 -13 -28 -11
-67 28 -40 40 -41 42 -24 61 22 25 2 40 -23 17 -16 -15 -19 -15 -36 4 -23 25
-35 25 -35 1z"/>
<path d="M1635 900 c-4 -6 -1 -18 6 -26 7 -9 13 -28 14 -42 0 -20 5 -26 18
-24 11 2 39 -15 67 -42 27 -25 54 -46 60 -46 15 0 50 38 50 55 0 8 -7 15 -15
15 -8 0 -15 -4 -15 -10 0 -21 -27 -8 -65 30 -37 38 -38 40 -21 59 22 25 2 40
-23 17 -16 -15 -19 -15 -36 4 -20 22 -31 25 -40 10z"/>
<path d="M1607 793 c-4 -3 -7 -20 -7 -36 0 -24 -3 -27 -14 -18 -10 8 -16 8
-24 -2 -9 -10 3 -28 53 -77 56 -55 66 -62 80 -50 14 12 11 18 -29 59 -50 51
-54 65 -30 92 23 25 -5 56 -29 32z"/>
<path d="M1455 634 c-26 -28 -32 -58 -15 -69 5 -3 16 8 25 24 19 38 30 44 55
31 20 -11 20 -11 -5 -48 -32 -47 -32 -77 0 -98 23 -15 27 -15 50 0 14 9 27 27
31 40 3 13 14 26 25 29 29 8 24 20 -31 71 -59 55 -97 61 -135 20z m123 -81 c3
-20 -21 -53 -39 -53 -19 0 -21 30 -4 56 19 29 39 27 43 -3z"/>
<path d="M1330 510 c-11 -11 -20 -31 -20 -45 0 -21 -5 -25 -31 -25 -25 0 -33
-6 -42 -30 -6 -16 -17 -30 -24 -30 -32 0 -20 -27 38 -86 56 -57 65 -62 78 -49
14 13 10 20 -33 64 -49 50 -56 75 -24 95 15 9 27 2 71 -42 47 -47 55 -51 67
-37 11 13 6 22 -34 65 -48 51 -54 68 -34 88 19 19 26 15 82 -38 48 -45 55 -49
67 -34 11 14 6 23 -43 70 -61 58 -86 66 -118 34z"/>
<path d="M1128 304 c-42 -22 -51 -85 -16 -108 13 -8 29 -6 62 6 24 9 47 14 50
11 15 -16 3 -44 -25 -59 -23 -11 -28 -19 -20 -27 31 -31 99 50 82 96 -13 34
-35 39 -82 20 -31 -12 -43 -13 -52 -4 -9 10 -6 18 16 36 44 39 35 57 -15 29z"/>
</g>
</svg>